<?xml version="1.0" standalone="no"?>
<!DOCTYPE svg PUBLIC "-//W3C//DTD SVG 20010904//EN"
 "http://www.w3.org/TR/2001/REC-SVG-20010904/DTD/svg10.dtd">
<svg version="1.0" xmlns="http://www.w3.org/2000/svg"
 width="1200.000000pt" height="1200.000000pt" viewBox="0 0 1200.000000 1200.000000"
 preserveAspectRatio="xMidYMid meet">
<metadata>
Created by potrace 1.11, written by Peter Selinger 2001-2013
</metadata>
<g transform="translate(0.000000,1200.000000) scale(0.100000,-0.100000)"
fill="#000000" stroke="none">
<path d="M5958 11681 c-38 -10 -83 -30 -102 -45 -19 -14 -295 -286 -613 -605
l-579 -578 -84 -5 c-126 -8 -288 -73 -370 -150 -20 -19 -34 -22 -89 -20 -36 1
-163 4 -281 7 l-215 5 -119 -41 c-134 -45 -191 -72 -286 -138 -79 -54 -113
-91 -143 -151 l-22 -45 -150 0 c-134 -1 -254 -8 -325 -19 -14 -3 -51 -7 -83
-11 -32 -3 -64 -8 -70 -10 -7 -2 -28 -6 -47 -9 -45 -7 -186 -53 -320 -105
-231 -89 -417 -242 -538 -442 -51 -83 -60 -93 -87 -94 -89 -3 -257 -74 -401
-170 -151 -101 -278 -268 -325 -428 -12 -42 -21 -52 -64 -77 -66 -38 -206
-151 -244 -197 -37 -45 -90 -150 -105 -212 -16 -61 -11 -208 9 -277 22 -75 58
-156 93 -208 l29 -43 -29 -59 c-29 -58 -29 -61 -24 -174 6 -119 12 -148 41
-215 10 -22 23 -51 29 -65 35 -82 132 -186 239 -259 69 -46 182 -91 231 -91
13 0 25 -3 29 -6 3 -3 -118 -130 -269 -281 -264 -264 -320 -327 -328 -369 -3
-10 -9 -38 -14 -61 -5 -23 -8 -44 -6 -46 2 -2 7 -24 10 -48 3 -24 13 -60 22
-79 10 -21 338 -357 844 -864 455 -456 828 -831 828 -832 0 -2 -15 -32 -34
-66 -58 -107 -76 -173 -81 -296 -3 -92 14 -175 47 -232 54 -90 164 -168 292
-207 104 -32 347 -21 478 22 26 8 51 15 56 15 5 0 690 -681 1523 -1513 833
-833 1530 -1525 1549 -1539 19 -14 65 -33 102 -42 62 -16 72 -16 130 -1 35 9
77 25 93 35 17 11 1262 1251 2767 2757 2718 2720 2737 2738 2752 2793 27 98
28 106 11 168 -21 82 -43 113 -190 261 -87 88 -141 153 -180 216 -31 50 -69
107 -86 127 -32 40 -33 39 41 53 49 9 91 25 120 47 38 29 170 158 170 167 0 4
8 16 18 27 26 27 77 122 92 169 20 61 15 252 -9 339 -44 158 -132 309 -250
425 -110 109 -138 130 -250 182 -70 32 -219 74 -277 78 -6 1 -14 13 -17 29 -6
32 -85 152 -130 200 -107 113 -282 197 -415 201 -14 1 -39 19 -65 47 -79 87
-191 148 -296 161 -57 7 -64 11 -68 32 -12 80 -107 305 -165 389 -44 65 -156
174 -220 214 -121 77 -396 184 -547 213 -128 25 -211 31 -471 34 -46 1 -165
-36 -214 -67 l-39 -24 -59 59 c-32 32 -485 484 -1006 1006 -521 521 -969 965
-997 986 -29 22 -71 43 -100 50 -27 7 -57 14 -65 16 -8 2 -45 -5 -82 -14z"/>
</g>
</svg>
